<svg height="512" viewBox="0 0 64 64" width="512" xmlns="http://www.w3.org/2000/svg"><g id="notebook-pen-book-writing-letter"><g fill="#bddbff"><path d="m51 9h6v6h-6z"/><path d="m54 61 3-11h-6z"/><path d="m47 53v4a4 4 0 0 1 -4 4h-40v-4h40a4 4 0 0 0 4-4z"/><path d="m43 3h-34v50h34a4 4 0 0 0 4-4v-42a4 4 0 0 0 -4-4zm-2 22h-26v-16h26z"/></g><path d="m43 2h-40a1 1 0 0 0 -1 1v58a1 1 0 0 0 1 1h40a5 5 0 0 0 5-5v-50a5 5 0 0 0 -5-5zm-39 2h4v48h-4zm42 53a3.009 3.009 0 0 1 -3 3h-39v-2h39a4.924 4.924 0 0 0 3-1.03zm0-4a3.009 3.009 0 0 1 -3 3h-39v-2h39a4.924 4.924 0 0 0 3-1.03zm0-4a3.009 3.009 0 0 1 -3 3h-33v-48h33a3.009 3.009 0 0 1 3 3z" fill="#57a4ff"/><path d="m41 8h-26a1 1 0 0 0 -1 1v16a1 1 0 0 0 1 1h26a1 1 0 0 0 1-1v-16a1 1 0 0 0 -1-1zm-1 16h-24v-14h24z" fill="#57a4ff"/><path d="m61 14h-3v-5a1 1 0 0 0 -1-1v-3a3 3 0 0 0 -6 0v3a1 1 0 0 0 -1 1v41a.746.746 0 0 0 .04.26l3 11a.993.993 0 0 0 1.92 0l3-11a.746.746 0 0 0 .04-.26v-34h2v13h2v-14a1 1 0 0 0 -1-1zm-8-9a1 1 0 0 1 2 0v3h-2zm1 52.2-1.69-6.2h3.38zm2-8.2h-4v-33h4zm0-35h-4v-4h4z" fill="#57a4ff"/></g></svg>